<svg width="80" height="80" viewBox="0 0 80 80" fill="none" xmlns="http://www.w3.org/2000/svg">
    <g clip-path="url(#clip0_36_10980)">
    <path d="M39.8605 10.1656C40.7295 10.1656 41.4341 9.46109 41.4341 8.59203V1.57359C41.4341 0.704531 40.7295 0 39.8605 0C38.9914 0 38.2869 0.704531 38.2869 1.57359V8.59203C38.287 9.46109 38.9916 10.1656 39.8605 10.1656Z" fill="#9664FF"/>
    <path d="M78.325 54.0602L75.5451 51.2881C74.5562 50.3005 73.2383 49.7564 71.8339 49.7564C70.9359 49.7564 70.0739 49.9799 69.31 50.3984L64.0715 45.1663L64.3267 44.9114C66.4519 42.782 66.4511 39.3219 64.3265 37.1997C63.5673 36.4391 62.62 35.9319 61.5873 35.7184C61.7295 35.2277 61.8043 34.7136 61.8043 34.1875C61.8043 32.7258 61.2365 31.3552 60.2087 30.3316C59.4493 29.5709 58.5022 29.0638 57.4695 28.8503C57.6117 28.3595 57.6865 27.8456 57.6865 27.3194C57.6865 25.8575 57.1187 24.487 56.0892 23.4619C55.3117 22.6853 54.3559 22.1938 53.3523 21.9845C53.8892 20.1334 53.4304 18.0508 51.9742 16.592C50.762 15.385 49.1172 14.8663 47.532 15.0344L37.1515 13.0695C35.5684 12.7692 33.5914 12.5706 32.3434 13.7089C32.2647 13.7808 32.1843 13.8634 32.1053 13.9555C30.1703 13.2502 27.9134 13.6702 26.3639 15.218C25.3359 16.2447 24.7697 17.6147 24.7697 19.0756C24.7697 19.6019 24.8442 20.1158 24.9862 20.6067C23.9547 20.82 23.0086 21.3266 22.2518 22.0847C21.2218 23.1105 20.6539 24.4789 20.6528 25.9381C20.6523 26.4656 20.7272 26.9813 20.87 27.4734C19.8379 27.6863 18.8912 28.1919 18.1322 28.95C17.1022 29.9789 16.535 31.3497 16.535 32.8099C16.535 33.9283 16.8689 34.9938 17.4876 35.8938C16.7064 36.1586 15.9907 36.5994 15.3915 37.198C13.265 39.3219 13.2642 42.7822 15.3929 44.9147L15.6472 45.1678L10.4081 50.3974C8.46106 49.4806 6.06215 49.8241 4.45543 51.4288L1.67387 54.2025C0.684492 55.1906 0.139805 56.5088 0.139648 57.9139C0.139648 59.3192 0.684492 60.6375 1.67387 61.6258L5.14527 65.093C5.76012 65.7072 6.75652 65.7066 7.37059 65.0917C7.98481 64.4769 7.98418 63.4805 7.36934 62.8664L3.89793 59.3992C3.50387 59.0056 3.28684 58.4781 3.28684 57.9141C3.28684 57.3502 3.50387 56.8228 3.89699 56.4302L6.67871 53.6563C7.37371 52.962 8.43746 52.8586 9.24527 53.3416C9.30215 53.427 9.36793 53.5083 9.44324 53.5838C9.57809 53.7189 9.73199 53.8225 9.89543 53.8983L25.8475 69.8269C25.9232 69.992 26.0273 70.1475 26.1631 70.2835C26.2953 70.4158 26.4461 70.5181 26.6061 70.5935C26.9434 70.9749 27.1298 71.4621 27.1298 71.9817C27.1298 72.5458 26.9128 73.0731 26.5187 73.4667L23.7398 76.2424C22.9187 77.0599 21.5831 77.0597 20.7645 76.2449L17.2931 72.7731C16.6786 72.1586 15.6823 72.1586 15.0678 72.7731C14.4532 73.3877 14.4532 74.3839 15.0678 74.9985L18.5417 78.4727C19.5642 79.491 20.907 79.9999 22.2504 79.9999C23.5942 79.9999 24.9386 79.4902 25.9623 78.471L28.7429 75.6936C29.7323 74.7053 30.2772 73.3872 30.2772 71.9817C30.2772 70.9788 29.9982 70.021 29.4797 69.195L35.3759 63.306C35.3822 63.2995 35.3884 63.2931 35.3948 63.2867C36.07 62.5888 37.9501 62.7194 39.7684 62.8456C41.0603 62.9355 42.5006 63.0353 43.9078 62.8731L50.3647 69.3224C49.9464 70.085 49.7231 70.946 49.7231 71.8425C49.7231 73.2464 50.2679 74.5638 51.2573 75.552L54.0381 78.3294C55.0268 79.3171 56.3448 79.8611 57.7492 79.8611C59.1534 79.8611 60.4714 79.3172 61.4603 78.3294L78.3261 61.4841C79.3154 60.4959 79.8603 59.1778 79.8603 57.7725C79.8601 56.3674 79.3153 55.0492 78.325 54.0602ZM36.5656 16.1617L43.3917 17.4538L39.3059 21.538C38.6739 21.2342 37.8076 20.6677 36.8573 19.7586C35.5565 18.5142 34.6261 17.0775 34.5414 16.1814C34.5412 16.1809 34.5412 16.1805 34.5412 16.18C34.5412 16.1799 34.5411 16.1797 34.5411 16.1795C34.535 16.1152 34.5334 16.0638 34.5342 16.0245C34.74 15.9745 35.2865 15.9191 36.5656 16.1617ZM28.5878 17.4447C29.385 16.6483 30.6234 16.5564 31.5242 17.1664C32.0347 19.3067 33.8604 21.2466 34.6818 22.0325C35.2906 22.615 37.2439 24.3614 39.2154 24.8414C39.4822 25.2238 39.6273 25.6795 39.6273 26.1605C39.6273 26.78 39.389 27.3592 38.9548 27.793C38.5218 28.2267 37.9417 28.4655 37.3211 28.4655C36.7003 28.4655 36.1201 28.2267 35.6851 27.7909L35.685 27.7908L35.6842 27.79L28.5876 20.7063C28.155 20.2742 27.9167 19.695 27.9167 19.0756C27.9168 18.4561 28.1551 17.8769 28.5878 17.4447ZM24.4759 24.3114C24.9089 23.8778 25.4884 23.6389 26.1081 23.6389C26.7286 23.6389 27.31 23.8783 27.7457 24.3136L33.4601 30.0166C34.36 30.9178 34.36 32.3844 33.4632 33.2825C33.0279 33.7161 32.4457 33.9549 31.824 33.9549C31.2023 33.9549 30.6201 33.7161 30.1867 33.2844L30.1865 33.2842L25.8514 28.95C25.8447 28.9433 25.8373 28.937 25.8304 28.9302L24.4742 27.5745C24.039 27.1399 23.7995 26.5595 23.8 25.9405C23.8006 25.3234 24.0393 24.7461 24.4759 24.3114ZM20.3562 31.1767C20.7895 30.7441 21.3703 30.5058 21.9918 30.5058C22.6082 30.5058 23.184 30.7406 23.6154 31.1658L27.9639 35.5122C28.3975 35.9441 28.6364 36.5227 28.6364 37.1414C28.6364 37.76 28.3975 38.3386 27.9622 38.7722C27.529 39.2047 26.9489 39.443 26.3284 39.443C25.707 39.443 25.125 39.2041 24.6912 38.7722L23.1148 37.1977C23.1145 37.1972 23.114 37.1969 23.1137 37.1966L20.3564 34.4425C19.9217 34.0083 19.6823 33.4283 19.6823 32.8095C19.6823 32.1909 19.9217 31.6108 20.3562 31.1767ZM17.6156 39.4245C18.0507 38.9899 18.6323 38.7505 19.2531 38.7505C19.8737 38.7505 20.4551 38.9897 20.8901 39.4241L22.4687 41.0008C22.9025 41.4327 23.1412 42.0113 23.1412 42.63C23.1412 43.2488 22.9023 43.8272 22.4654 44.2625C22.0325 44.6961 21.4523 44.935 20.8317 44.935C20.2109 44.935 19.6307 44.6963 19.1947 44.2594L18.997 44.0625C18.9943 44.0599 18.9923 44.057 18.9898 44.0545C18.9868 44.0517 18.9837 44.0492 18.9807 44.0464L17.6172 42.6881C16.7173 41.7864 16.7165 40.3225 17.6156 39.4245ZM49.6834 57.3086C49.0692 56.6936 48.0728 56.6931 47.4581 57.3072L46.0581 58.7055C44.7278 60.0358 42.3173 59.8683 39.9862 59.7066C37.4548 59.5306 34.8372 59.3491 33.1432 61.0881L27.3472 66.8772L12.8529 52.4042L17.9823 47.2841C18.8301 47.8038 19.8084 48.0824 20.832 48.0824C22.2943 48.0824 23.6656 47.5155 24.6898 46.4894C25.7209 45.4625 26.2889 44.092 26.2889 42.6302C26.2889 42.6166 26.2879 42.6031 26.2879 42.5895C26.3015 42.5897 26.3151 42.5905 26.3287 42.5905C27.789 42.5905 29.1592 42.0253 30.1848 41.0009C31.2159 39.9741 31.7839 38.6034 31.7839 37.1417C31.7839 37.1281 31.7829 37.1147 31.7829 37.1011C31.7967 37.1011 31.8104 37.102 31.8243 37.102C33.2842 37.102 34.6551 36.5375 35.6876 35.5092C36.7595 34.4356 37.2897 33.0222 37.2795 31.6117C37.2936 31.6119 37.3076 31.6127 37.3217 31.6127C38.784 31.6125 40.1551 31.0458 41.1809 30.0181C42.2089 28.9914 42.7751 27.6214 42.7751 26.1605C42.7751 25.1388 42.4973 24.162 41.9793 23.3159L46.4751 18.822C46.8101 18.4884 47.2232 18.2791 47.6562 18.1927C47.7031 18.1877 47.7493 18.1802 47.7951 18.1711C48.4898 18.0753 49.2193 18.2897 49.7506 18.8188C50.6504 19.7202 50.6504 21.1867 49.7539 22.0849L48.3847 23.4484C48.3801 23.453 48.3753 23.457 48.3708 23.4616L46.7937 25.0359C46.1787 25.65 46.1781 26.6464 46.7923 27.2613C47.4067 27.8763 48.4029 27.8767 49.0176 27.2627L50.3923 25.8899C50.3926 25.8895 50.3929 25.8892 50.3932 25.8889L50.6011 25.6819C51.5034 24.7878 52.9653 24.7897 53.8667 25.6899C54.3004 26.1217 54.5393 26.7003 54.5393 27.3191C54.5393 27.9377 54.3004 28.5163 53.8633 28.9516L52.4862 30.3314C52.4861 30.3316 52.4859 30.3317 52.4857 30.332L50.9089 31.9025C50.2931 32.5158 50.2911 33.5122 50.9043 34.1278C51.5176 34.7436 52.5139 34.7455 53.1297 34.1324L54.7137 32.5547C55.1467 32.1209 55.7268 31.8822 56.3475 31.8822C56.9683 31.8822 57.5486 32.1209 57.9847 32.5578C58.4184 32.9899 58.6572 33.5684 58.6572 34.1872C58.6572 34.8058 58.4184 35.3844 57.9822 35.8188L55.2368 38.5652C54.6225 39.1799 54.6226 40.1761 55.2372 40.7905C55.5445 41.0977 55.947 41.2511 56.3497 41.2511C56.7525 41.2511 57.1553 41.0974 57.4625 40.79L58.8079 39.4441C58.8156 39.4367 58.8239 39.4303 58.8315 39.4227C59.2645 38.9889 59.8447 38.7502 60.4653 38.7502C61.0861 38.7502 61.6662 38.9889 62.1008 39.4242C62.9997 40.3222 62.9989 41.7863 62.1008 42.6859L60.7328 44.0524C60.7323 44.0528 60.7317 44.0533 60.7312 44.0538C60.7308 44.0542 60.7303 44.0549 60.7298 44.0553L58.5586 46.2239C57.9437 46.8381 57.9431 47.8345 58.5572 48.4494C58.8645 48.757 59.2676 48.9109 59.6706 48.9109C60.0729 48.9109 60.4754 48.7575 60.7826 48.4508L61.8447 47.39L66.9348 52.4742L52.4418 66.9495L47.249 61.763C47.6111 61.5302 47.9575 61.2564 48.2826 60.9313L49.6818 59.5338C50.297 58.9199 50.2976 57.9235 49.6834 57.3086ZM76.1019 59.2574L59.2361 76.1027C58.8415 76.4967 58.3134 76.7138 57.749 76.7138C57.1847 76.7138 56.6565 76.4967 56.2618 76.1025L53.4811 73.3252C53.087 72.9317 52.87 72.4052 52.87 71.8425C52.87 71.28 53.087 70.7535 53.4811 70.3599L70.3468 53.5145C70.7415 53.1203 71.2695 52.9033 71.834 52.9033C72.3984 52.9033 72.9265 53.1203 73.3222 53.5155L76.102 56.2875C76.4961 56.6811 76.7131 57.2083 76.7131 57.7724C76.7129 58.3366 76.4959 58.8639 76.1019 59.2574Z" fill="#9664FF"/>
    <path d="M18.9653 8.83906C19.2725 9.14562 19.6747 9.29874 20.0769 9.29874C20.48 9.29874 20.8833 9.14468 21.1907 8.83671C21.8046 8.22156 21.8036 7.22531 21.1885 6.6114L15.4544 0.888743C14.8394 0.274837 13.843 0.275618 13.2291 0.89093C12.6152 1.50609 12.6161 2.50234 13.2313 3.11624L18.9653 8.83906Z" fill="#9664FF"/>
    <path d="M59.6441 9.29875C60.0465 9.29875 60.449 9.14531 60.7561 8.83859L66.4858 3.11578C67.1007 2.50171 67.1013 1.50531 66.4871 0.890464C65.873 0.27562 64.8768 0.274995 64.2618 0.889214L58.5321 6.61203C57.9172 7.22609 57.9166 8.2225 58.5308 8.83734C58.8382 9.145 59.2411 9.29875 59.6441 9.29875Z" fill="#9664FF"/>
    <path d="M9.81544 67.6881C9.20622 68.3078 9.21466 69.3042 9.8345 69.9135L9.83903 69.9178C10.1448 70.2185 10.5418 70.3681 10.9387 70.3681C11.3461 70.3681 11.7534 70.2105 12.062 69.8966C12.6712 69.2769 12.6604 68.2783 12.0407 67.6691C11.4212 67.0599 10.425 67.0685 9.81544 67.6881Z" fill="#9664FF"/>
    <path d="M53.0487 52.5096L53.0487 52.5096L53.0416 52.5131C52.514 52.7793 52.303 53.4218 52.5708 53.953L52.5709 53.9531C52.7582 54.3249 53.1362 54.5417 53.5322 54.5417C53.6952 54.5417 53.8608 54.5047 54.0174 54.4258C54.5466 54.1587 54.7592 53.5133 54.4923 52.9839L53.0487 52.5096ZM53.0487 52.5096L53.0504 52.5088M53.0487 52.5096L53.0504 52.5088M53.0504 52.5088C53.5795 52.2418 54.2252 52.4544 54.4923 52.9839L53.0504 52.5088Z" fill="#9664FF" stroke="#9664FF"/>
    </g>
    <defs>
    <clipPath id="clip0_36_10980">
    <rect width="80" height="80" fill="#9664FF"/>
    </clipPath>
    </defs>
</svg>