                                            <svg width="30" height="30" viewBox="0 0 30 30" fill="none" xmlns="http://www.w3.org/2000/svg">
                                                <path d="M11.8 12.0706C11.8349 12.0694 11.8697 12.0641 11.9035 12.0547C13.2659 11.6742 13.5169 10.8692 13.5377 9.3197L13.5388 9.29438C13.5759 8.43452 13.6181 7.45999 13.0127 6.86415C12.653 6.51013 12.1173 6.35128 11.4207 6.39265C10.7002 6.43513 9.85213 6.73372 9.20772 7.17177C8.01516 7.98112 7.32534 9.34694 7.07737 10.355C6.67453 11.9893 6.80239 14.1883 7.41932 16.2381C8.00578 18.2922 9.09487 20.2511 10.333 21.4787C11.0922 22.2312 12.4242 23.091 13.8857 23.2469C14.0482 23.2644 14.215 23.2729 14.383 23.2729C15.0364 23.2729 15.7087 23.1441 16.2239 22.9119C16.8735 22.619 17.2535 22.2451 17.3856 21.7689C17.603 20.9852 17.0657 20.2096 16.5462 19.4593L16.4834 19.3686C15.6309 18.0549 14.9839 17.4806 13.6199 17.7683C13.5853 17.7757 13.5517 17.7871 13.5199 17.8025C13.5192 17.8025 13.5186 17.8025 13.5179 17.8025C13.2904 17.8025 12.5102 17.1917 12.0106 15.9918C11.9009 15.7293 11.8008 15.4451 11.7131 15.1482C11.6257 14.8502 11.5571 14.559 11.5091 14.2817C11.2937 13.0543 11.6146 12.1771 11.8 12.0706ZM11.0835 11.5483C10.615 12.1045 10.4381 13.2641 10.6432 14.4326C10.6968 14.7418 10.7729 15.0658 10.87 15.3964C10.9668 15.7245 11.0777 16.0388 11.1994 16.3301C11.6625 17.4424 12.4465 18.3591 13.1504 18.6114C13.4574 18.7214 13.6915 18.6835 13.8486 18.6186C14.5684 18.4727 14.9116 18.5598 15.7496 19.8523C15.7519 19.8559 15.7543 19.8595 15.7567 19.863L15.8238 19.9598C16.2281 20.5435 16.6461 21.1471 16.5388 21.534C16.4815 21.7401 16.2541 21.9342 15.8627 22.1107C15.3494 22.3421 14.6277 22.4426 13.9793 22.373C12.7422 22.241 11.5753 21.4725 10.9519 20.8545C9.81539 19.7278 8.81051 17.9108 8.26377 15.994C8.26319 15.9919 8.26254 15.9898 8.26196 15.9878C7.68768 14.0813 7.56387 12.0542 7.9309 10.5652C8.1303 9.75417 8.71366 8.56929 9.7016 7.89886C10.2148 7.55005 10.9099 7.30319 11.4726 7.27003C11.5293 7.26669 11.5839 7.26505 11.6363 7.26505C11.9888 7.26505 12.244 7.34069 12.3963 7.49058C12.7232 7.81237 12.6915 8.54649 12.6608 9.25647L12.6594 9.28841C12.6592 9.2928 12.6591 9.2972 12.6591 9.30165C12.6399 10.7782 12.4109 10.9945 11.7135 11.1951C11.5354 11.2106 11.3011 11.2901 11.0835 11.5483Z" fill="white"/>
                                                <path d="M25.9506 6.38348H20.0176C19.7748 6.38348 19.5781 6.58024 19.5781 6.82294C19.5781 7.06563 19.7748 7.26239 20.0176 7.26239H25.9506C26.1934 7.26239 26.3901 7.06563 26.3901 6.82294C26.3901 6.58024 26.1933 6.38348 25.9506 6.38348Z" fill="white"/>
                                                <path d="M25.9506 8.70435H20.0176C19.7748 8.70435 19.5781 8.9011 19.5781 9.1438C19.5781 9.38649 19.7748 9.58325 20.0176 9.58325H25.9506C26.1934 9.58325 26.3901 9.38649 26.3901 9.1438C26.3901 8.9011 26.1933 8.70435 25.9506 8.70435Z" fill="white"/>
                                                <path d="M30 8.14102C30 6.88107 29.5516 5.67146 28.7033 4.64297C28.5489 4.4557 28.2719 4.42916 28.0846 4.58355C27.8974 4.73795 27.8708 5.01492 28.0252 5.20219C28.7422 6.07143 29.1211 7.08762 29.1211 8.14102C29.1211 11.0377 26.257 13.3943 22.7366 13.3943C22.0393 13.3943 21.3542 13.302 20.7005 13.1201C20.5669 13.0829 20.4233 13.111 20.3135 13.1961L18.7966 14.3717L18.9923 12.7339C19.0293 12.5573 18.9543 12.3742 18.8006 12.275C17.2446 11.2698 16.3522 9.76301 16.3522 8.14096C16.3522 5.24426 19.2162 2.88768 22.7367 2.88768C24.1818 2.88768 25.5456 3.27633 26.6805 4.01168C26.8841 4.14363 27.1563 4.08551 27.2883 3.88184C27.4203 3.67811 27.3622 3.40605 27.1584 3.27404C25.8809 2.44629 24.3519 2.00877 22.7367 2.00877C21.1391 2.00877 19.6607 2.44682 18.4601 3.18762C16.7474 2.39502 14.9146 1.99219 13.0079 1.99219C9.49377 1.99219 6.2018 3.37078 3.7384 5.87402C3.56818 6.04705 3.57041 6.32525 3.74338 6.49547C3.82898 6.57973 3.94031 6.62168 4.05158 6.62168C4.1652 6.62168 4.27881 6.57785 4.36482 6.49049C6.6617 4.15652 9.73119 2.87109 13.0079 2.87109C14.6165 2.87109 16.1684 3.17801 17.6316 3.7834C16.2998 4.89563 15.4732 6.43828 15.4732 8.14102C15.4732 9.98361 16.4241 11.6888 18.0924 12.8577L17.8488 14.8962C17.8468 14.9135 17.8457 14.9309 17.8457 14.9483V15.0518C17.8457 15.3008 17.9732 15.5136 18.1783 15.6073C18.2235 15.6279 18.3021 15.6552 18.4025 15.6552C18.5255 15.6552 18.681 15.6142 18.8476 15.47C18.8814 15.4402 18.9025 15.4209 18.9286 15.3971C18.9559 15.3722 18.9891 15.342 19.0532 15.285L20.6804 14.0237C21.3451 14.1894 22.0357 14.2733 22.7366 14.2733C23.5598 14.2733 24.3513 14.1568 25.0896 13.9429C25.12 14.295 25.1368 14.6487 25.1368 15.0001C25.1368 21.688 19.6958 27.129 13.0079 27.129C6.31992 27.129 0.878906 21.6879 0.878906 15C0.878906 12.4607 1.65439 10.0299 3.12152 7.97057C3.26232 7.77287 3.21627 7.49848 3.01857 7.35768C2.82094 7.21682 2.54654 7.26293 2.40568 7.46063C0.831855 9.66967 0 12.2767 0 15C0 18.4744 1.35293 21.7409 3.80953 24.1977C6.26631 26.6547 9.53303 28.0078 13.0079 28.0078C20.1805 28.0078 26.0157 22.1725 26.0157 15C26.0157 14.5484 25.9916 14.093 25.9447 13.6416C28.3451 12.6397 30 10.5506 30 8.14102Z" fill="white"/>
                                            </svg>