<svg width="80" height="80" viewBox="0 0 80 80" fill="" xmlns="http://www.w3.org/2000/svg">
<g clip-path="url(#clip0_36_10892)">
<path d="M28.9766 3.1328C28.6985 2.32796 27.7965 1.88952 26.9922 2.16249C24.6454 2.9703 22.3626 4.00312 20.2047 5.23437C15.9677 7.65218 12.1193 10.9041 9.01255 14.7031C7.4563 16.6094 6.06881 18.6672 4.88912 20.8203C4.47662 21.5766 4.75474 22.528 5.51099 22.9406C6.25818 23.3481 7.22302 23.0647 7.6313 22.3203C12.0641 14.2203 19.3016 8.11093 28.0079 5.11874C28.8219 4.83906 29.2579 3.94687 28.9766 3.1328Z" fill="#9664FF"/>
<path d="M3.72027 25.7094C3.05777 25.7094 2.46402 26.1297 2.24527 26.7547C1.96089 27.5672 2.38902 28.4609 3.20308 28.7469C3.98605 29.0219 4.91261 28.5917 5.19355 27.7891C5.53902 26.8024 4.76308 25.7094 3.72027 25.7094Z" fill="#9664FF"/>
<path d="M74.4891 57.0594C73.7419 56.6522 72.7773 56.935 72.3688 57.6797C67.9362 65.7797 60.6987 71.889 51.9924 74.8812C51.198 75.1542 50.7516 76.0769 51.0235 76.8672C51.3001 77.6711 52.2066 78.1105 53.0094 77.8375C55.3548 77.0297 57.6376 75.9969 59.7954 74.7656C61.9266 73.55 63.9594 72.1281 65.836 70.5391C67.7048 68.9562 69.4376 67.1922 70.9876 65.2969C72.5438 63.3906 73.9313 61.3328 75.1094 59.1798C75.5176 58.4336 75.2348 57.4656 74.4891 57.0594Z" fill="#9664FF"/>
<path d="M77.6891 52.0516C77.5078 51.675 77.1906 51.3922 76.7969 51.2531C75.5405 50.8095 74.2822 52.1792 74.8719 53.4047C75.0531 53.7812 75.3688 54.0641 75.7625 54.2016C77.0347 54.6495 78.2711 53.2664 77.6891 52.0516Z" fill="#9664FF"/>
<path d="M78.4375 38.4375H73.7134C73.3319 30.0092 69.8697 22.14 63.8648 16.1352C57.86 10.1303 49.9908 6.66813 41.5625 6.28656V1.5625C41.5625 0.699531 40.863 0 40 0C39.137 0 38.4375 0.699531 38.4375 1.5625V6.28656C30.0092 6.66813 22.14 10.1303 16.1352 16.1352C10.1303 22.14 6.66813 30.0092 6.28656 38.4375H1.5625C0.699531 38.4375 0 39.137 0 40C0 40.863 0.699531 41.5625 1.5625 41.5625H6.28656C6.66813 49.9908 10.1303 57.86 16.1352 63.8648C22.14 69.8697 30.0092 73.3319 38.4375 73.7134V78.4375C38.4375 79.3005 39.137 80 40 80C40.863 80 41.5625 79.3005 41.5625 78.4375V73.7134C49.9908 73.3319 57.86 69.8697 63.8648 63.8648C69.8697 57.86 73.3319 49.9908 73.7134 41.5625H78.4375C79.3005 41.5625 80 40.863 80 40C80 39.137 79.3005 38.4375 78.4375 38.4375ZM65.9375 41.5625H70.5855C69.7953 57.2084 57.2084 69.7953 41.5625 70.5855V65.9375C41.5625 65.0745 40.863 64.375 40 64.375C39.137 64.375 38.4375 65.0745 38.4375 65.9375V70.5855C22.7916 69.7953 10.2047 57.2084 9.41453 41.5625H14.0625C14.9255 41.5625 15.625 40.863 15.625 40C15.625 39.137 14.9255 38.4375 14.0625 38.4375H9.41453C10.2047 22.7916 22.7916 10.2047 38.4375 9.41453V14.0625C38.4375 14.9255 39.137 15.625 40 15.625C40.863 15.625 41.5625 14.9255 41.5625 14.0625V9.41453C57.2084 10.2047 69.7953 22.7916 70.5855 38.4375H65.9375C65.0745 38.4375 64.375 39.137 64.375 40C64.375 40.863 65.0745 41.5625 65.9375 41.5625Z" fill="#9664FF"/>
<path d="M48.1797 41.4889C49.8936 39.2814 50.9375 36.3795 50.9375 33.2031C50.9375 26.3106 46.0309 20.7031 40 20.7031C33.9691 20.7031 29.0625 26.3106 29.0625 33.2031C29.0625 36.3797 30.1064 39.2816 31.8205 41.4891C26.9081 44.7322 23.5938 50.798 23.5938 57.7344C23.5938 58.5973 24.2933 59.2969 25.1562 59.2969H54.8438C55.7067 59.2969 56.4062 58.5973 56.4062 57.7344C56.4062 50.7981 53.092 44.732 48.1797 41.4889ZM40 23.8281C44.3078 23.8281 47.8125 28.0338 47.8125 33.2031C47.8125 38.3725 44.3078 42.5781 40 42.5781C35.6922 42.5781 32.1875 38.3725 32.1875 33.2031C32.1875 28.0338 35.6922 23.8281 40 23.8281ZM26.7847 56.1719C27.248 50.7097 30.1133 46.0688 34.1153 43.7314C35.8158 44.9772 37.8345 45.7031 40 45.7031C42.1653 45.7031 44.1838 44.9773 45.8842 43.7317C49.8866 46.0691 52.7522 50.7095 53.2153 56.1719H26.7847Z" fill="#9664FF"/>
</g>
<defs>
<clipPath id="clip0_36_10892">
<rect width="80" height="80" fill="#9664FF"/>
</clipPath>
</defs>
</svg>