                                        <svg width="38" height="40" viewBox="0 0 38 40" fill="none" xmlns="http://www.w3.org/2000/svg">
                                            <path d="M34.2 6.09087C34.994 6.09087 35.6364 5.44844 35.6364 4.6545C35.6364 3.86056 34.994 3.21814 34.2 3.21814C33.4061 3.21814 32.7637 3.86056 32.7637 4.6545C32.7637 5.44844 33.4122 6.09087 34.2 6.09087ZM34.2 4.24238C34.4303 4.24238 34.6182 4.43026 34.6182 4.66056C34.6182 4.89087 34.4303 5.07875 34.2 5.07875C33.9637 5.07875 33.7819 4.89693 33.7819 4.66056C33.7819 4.4242 33.9697 4.24238 34.2 4.24238Z" fill="white"/>
                                            <path d="M35.7939 0.896973H6.26665C5.14544 0.896973 4.23028 1.81212 4.23028 2.93334V6.04243H2.20604C1.08483 6.04243 0.169678 6.95758 0.169678 8.07879V33.6121C0.169678 34.7333 1.08483 35.6485 2.20604 35.6485H15.7394V38.5939C15.7394 38.8727 15.9697 39.103 16.2485 39.103H25.8121C26.0909 39.103 26.3212 38.8727 26.3212 38.5939V35.6485H31.7333C32.8545 35.6485 33.7697 34.7333 33.7697 33.6121V30.503H35.7939C36.9151 30.503 37.8303 29.5879 37.8303 28.4667V2.93334C37.8303 1.81212 36.9151 0.896973 35.7939 0.896973ZM5.24847 2.93334C5.24847 2.3697 5.70907 1.91515 6.26665 1.91515H35.7939C36.3576 1.91515 36.8121 2.37576 36.8121 2.93334V7.4H17.4909L15.2182 5.04243C15.0424 4.86061 14.8 4.75758 14.5515 4.75758H9.54543C9.03634 4.75758 8.61816 5.17576 8.61816 5.68485V7.4H5.24847V2.93334ZM2.20604 34.6364C1.64241 34.6364 1.18786 34.1758 1.18786 33.6182V8.07879C1.18786 7.51515 1.64847 7.06061 2.20604 7.06061H4.23028V28.4727C4.23028 29.5939 5.14544 30.5091 6.26665 30.5091H17.3212C17.5212 30.897 17.6121 31.3333 17.5757 31.7818H16.7879C16.206 31.7818 15.7394 32.2545 15.7394 32.8303V34.6364H2.20604ZM20.5273 23.9758C20.6303 23.7939 20.8182 23.6788 21.0303 23.6788C21.3454 23.6788 21.6 23.9333 21.6 24.2485C21.6 24.4545 21.4909 24.6424 21.3151 24.7455C21.1212 24.8606 20.8909 24.8485 20.6545 24.7152C20.6242 24.697 20.5939 24.6727 20.5818 24.6424C20.3879 24.3333 20.4666 24.0909 20.5273 23.9758ZM20.5212 22.7576C20.1515 22.8849 19.8363 23.1333 19.6424 23.4849C19.3515 24.0061 19.3879 24.6424 19.7273 25.1879C19.8363 25.3576 19.9818 25.497 20.1576 25.6C20.4363 25.7576 20.7394 25.8424 21.0363 25.8424C21.3151 25.8424 21.5879 25.7697 21.8303 25.6303C22.3151 25.3455 22.6182 24.8182 22.6182 24.2545C22.6182 23.5576 22.1636 22.9697 21.5394 22.7576V20.1394L26.0424 28.2667C26.0363 28.2727 26.0303 28.2849 26.0121 28.2909C24.4182 28.703 23.3757 30.1939 23.4606 31.7818H18.606C18.6969 30.1879 17.6485 28.697 16.0242 28.2424L20.5212 20.1394V22.7576ZM25.303 38.0849H16.7576L16.7879 32.7939H25.2727C25.2909 32.7939 25.303 32.8061 25.303 32.8242V38.0849ZM32.7515 33.6121C32.7515 34.1758 32.2909 34.6303 31.7333 34.6303H26.3212V32.8242C26.3212 32.2424 25.8485 31.7758 25.2727 31.7758H24.4848C24.4485 31.3273 24.5454 30.8909 24.7394 30.503H32.7515V33.6121ZM35.7939 29.4909H25.7273C25.8909 29.4 26.0666 29.3212 26.2606 29.2727C26.5818 29.1879 26.8424 28.9636 26.9757 28.6606C27.103 28.3636 27.0848 28.0303 26.9273 27.7455L21.7151 18.3576C21.5818 18.1091 21.3212 17.9515 21.0363 17.9515C20.7454 17.9576 20.4848 18.103 20.3454 18.3515L15.1273 27.7455C14.9697 28.0303 14.9576 28.3697 15.0848 28.6667C15.2121 28.9697 15.4727 29.1879 15.7939 29.2727C15.9879 29.3212 16.1576 29.4 16.3273 29.4909H6.26665C5.70301 29.4909 5.24847 29.0303 5.24847 28.4727V8.41818H8.70301C9.2121 8.41818 9.63028 8 9.63028 7.49091V5.77576H14.5091L16.7818 8.13334C16.9576 8.31516 17.2 8.41818 17.4485 8.41818H36.8121V28.4667C36.8121 29.0303 36.3576 29.4909 35.7939 29.4909Z" fill="white"/>
                                            <path d="M30.7332 6.09087C31.5272 6.09087 32.1696 5.44844 32.1696 4.6545C32.1696 3.86056 31.5272 3.21814 30.7332 3.21814C29.9393 3.21814 29.2969 3.86056 29.2969 4.6545C29.2969 5.44844 29.9393 6.09087 30.7332 6.09087ZM30.7332 4.24238C30.9635 4.24238 31.1514 4.43026 31.1514 4.66056C31.1514 4.89087 30.9635 5.07875 30.7332 5.07875C30.4969 5.07875 30.3151 4.89693 30.3151 4.66056C30.3151 4.4242 30.5029 4.24238 30.7332 4.24238Z" fill="white"/>
                                            <path d="M27.2606 6.09087C28.0545 6.09087 28.6969 5.44844 28.6969 4.6545C28.6969 3.86056 28.0545 3.21814 27.2606 3.21814C26.4666 3.21814 25.8242 3.86056 25.8242 4.6545C25.8242 5.44844 26.4666 6.09087 27.2606 6.09087ZM27.2606 4.24238C27.4909 4.24238 27.6788 4.43026 27.6788 4.66056C27.6788 4.89087 27.4909 5.07875 27.2606 5.07875C27.0242 5.07875 26.8424 4.89693 26.8424 4.66056C26.8424 4.4242 27.0303 4.24238 27.2606 4.24238Z" fill="white"/>
                                            <path d="M30.8424 12.8546C30.5455 13.1515 30.3576 13.5273 30.2849 13.9273H23.1636V13.1273C23.1636 12.5818 22.7212 12.1394 22.1758 12.1394H19.8788C19.3333 12.1394 18.8909 12.5818 18.8909 13.1273V13.9273H11.7758C11.7091 13.5333 11.5212 13.1576 11.2182 12.8485C10.4485 12.0909 9.13334 12.103 8.38182 12.8546C8.00001 13.2364 7.79395 13.7394 7.79395 14.2727C7.79395 14.8121 8.00607 15.3212 8.38182 15.6909C8.76364 16.0849 9.27273 16.2849 9.80001 16.2849C10.1333 16.2849 10.4727 16.2061 10.7939 16.0424C11.1394 15.8667 11.4242 15.5758 11.5939 15.2182C11.6364 15.1273 11.6727 15.0364 11.703 14.9455H16.6424C13.9576 16.2546 11.9333 18.7152 11.2303 21.6849H10.4424C9.89697 21.6849 9.45455 22.1273 9.45455 22.6727V24.9697C9.45455 25.5152 9.89697 25.9576 10.4424 25.9576H12.7394C13.2849 25.9576 13.7273 25.5152 13.7273 24.9697V22.6727C13.7273 22.1273 13.2849 21.6849 12.7394 21.6849H12.2788C13.1273 18.4849 15.6909 15.9758 18.9091 15.2V15.4182C18.9091 15.9636 19.3515 16.4061 19.897 16.4061H22.1939C22.7394 16.4061 23.1818 15.9636 23.1818 15.4182V15.2C26.3939 15.9758 28.9576 18.4849 29.8121 21.6849H29.3939C28.8485 21.6849 28.4061 22.1273 28.4061 22.6727V24.9697C28.4061 25.5152 28.8485 25.9576 29.3939 25.9576H31.6909C32.2364 25.9576 32.6788 25.5152 32.6788 24.9697V22.6727C32.6788 22.1273 32.2364 21.6849 31.6909 21.6849H30.8606C30.1515 18.7152 28.1273 16.2485 25.4485 14.9455H30.4C30.497 15.2243 30.6546 15.4788 30.8667 15.6909C31.2485 16.0849 31.7576 16.2849 32.2849 16.2849C32.6182 16.2849 32.9576 16.2061 33.2788 16.0424C33.6242 15.8667 33.9091 15.5758 34.0788 15.2182C34.4727 14.3879 34.3333 13.4849 33.7091 12.8485C32.9152 12.097 31.6 12.103 30.8424 12.8546ZM10.6667 14.7879C10.5939 14.9333 10.4727 15.0606 10.3273 15.1333C9.80001 15.4 9.34546 15.2303 9.09698 14.9697C8.9091 14.7879 8.80607 14.5394 8.80607 14.2727C8.80607 14.0121 8.9091 13.7636 9.09698 13.5697C9.28485 13.3818 9.53334 13.2788 9.80001 13.2788C10.0606 13.2788 10.3152 13.3818 10.497 13.5636C10.8121 13.8909 10.8727 14.3455 10.6667 14.7879ZM12.7273 24.9394L10.4606 24.9697L10.4303 22.703H12.697L12.7273 24.9394ZM31.6727 24.9394L29.4061 24.9697L29.3758 22.703H31.6424L31.6727 24.9394ZM19.9152 15.4243L19.903 14.6606C19.9152 14.6061 19.9152 14.5515 19.9091 14.4909V14.4849C19.9091 14.4667 19.9212 14.4546 19.9212 14.4364C19.9212 14.4061 19.9091 14.3818 19.903 14.3576L19.8849 13.1636H22.1515L22.1697 14.3576C22.1636 14.3879 22.1515 14.4121 22.1515 14.4424C22.1515 14.4606 22.1576 14.4727 22.1636 14.4909V14.497C22.1515 14.5758 22.1576 14.6485 22.1758 14.7152L22.1879 15.4L19.9152 15.4243ZM33.1333 14.7879C33.0606 14.9333 32.9394 15.0606 32.7939 15.1333C32.2667 15.4 31.8121 15.2303 31.5636 14.9697C31.3758 14.7879 31.2727 14.5394 31.2727 14.2727C31.2727 14.0121 31.3758 13.7636 31.5636 13.5697C31.7515 13.3818 32 13.2788 32.2667 13.2788C32.5273 13.2788 32.7818 13.3818 32.9636 13.5636C33.2788 13.8909 33.3394 14.3455 33.1333 14.7879Z" fill="white"/>
                                        </svg> 