<svg width="80" height="80" viewBox="0 0 80 80" fill="none" xmlns="http://www.w3.org/2000/svg">
<g clip-path="url(#clip0_36_10987)">
<path d="M29.0289 13.3225C31.2973 13.3225 33.1429 11.4769 33.1429 9.20844C33.1429 6.94 31.2973 5.09438 29.0289 5.09438C26.7604 5.09438 24.9148 6.94 24.9148 9.20844C24.9148 11.4769 26.7604 13.3225 29.0289 13.3225ZM29.0289 7.43828C30.005 7.43828 30.7992 8.2325 30.7992 9.20859C30.7992 10.1847 30.005 10.9789 29.0289 10.9789C28.0528 10.9789 27.2585 10.1847 27.2585 9.20859C27.2585 8.2325 28.0528 7.43828 29.0289 7.43828Z" fill="#9664FF"/>
<path d="M58.496 53.5633C60.7646 53.5633 62.61 51.7177 62.61 49.4492C62.61 47.1808 60.7644 45.3352 58.496 45.3352C56.2275 45.3352 54.3821 47.1808 54.3821 49.4492C54.3821 51.7177 56.2277 53.5633 58.496 53.5633ZM58.496 47.6791C59.4721 47.6791 60.2663 48.4731 60.2663 49.4494C60.2663 50.4255 59.4721 51.2197 58.496 51.2197C57.5199 51.2197 56.7258 50.4255 56.7258 49.4494C56.7258 48.4731 57.5199 47.6791 58.496 47.6791Z" fill="#9664FF"/>
<path d="M69.3706 16.9833C66.6839 13.7858 63.5139 11.0613 59.9487 8.88532C59.3964 8.54813 58.6753 8.72266 58.3379 9.27516C58.0007 9.82766 58.1753 10.5488 58.7278 10.8859C61.8461 12.7889 64.6423 15.1389 67.05 17.8784C66.2287 19.0342 65.9132 20.9409 63.9968 21.0945C62.3678 21.225 60.9281 22.1608 60.1515 23.6084L58.7679 26.1872C57.8131 27.9666 55.9353 27.3869 54.9059 27.3869C52.6979 27.3869 50.5751 28.32 49.0809 29.9478C47.5126 31.66 47.1761 33.4416 46.8792 35.0136C46.6509 36.2231 46.4521 37.27 45.7611 38.2831C45.6412 38.4588 45.7665 38.2819 42.4609 42.6956C41.3432 44.1889 41.6431 46.3233 43.1789 47.4381L45.9136 49.4209C46.7411 50.0194 47.7707 50.202 48.724 49.9553C48.9162 49.9073 49.1036 49.8603 49.2881 49.8136C49.2906 49.813 49.2931 49.8124 49.2954 49.8117C49.2978 49.9441 49.3028 50.0759 49.3107 50.2077C49.5836 54.7809 52.2525 59.1006 55.3362 62.4928C57.0484 64.3764 59.9811 64.3353 61.6526 62.4972C61.654 62.4956 61.6554 62.4941 61.6568 62.4925C63.839 60.0928 65.7986 57.2617 66.8651 54.1722L72.02 58.1369C66.2934 69.2438 55.2262 76.5964 42.7851 77.5494C42.6723 76.9761 40.9218 74.6503 42.9353 73.2136C44.1625 72.3433 44.8951 70.9236 44.8951 69.4161C44.8951 68.1845 44.9756 67.1917 44.33 66.0034C44.155 65.6813 43.9304 65.3577 43.6345 65.0422L41.8137 63.1005C41.0775 62.3155 40.9834 61.1005 41.5898 60.2116L42.0789 59.4948C43.8206 56.9392 42.6406 53.4136 39.6826 52.4414L34.3967 50.7064C34.1847 50.6366 34.0061 50.492 33.8937 50.2984L30.2689 44.063C29.0459 41.9542 25.9889 41.8813 24.6889 43.9889L23.8218 45.3944C23.6542 45.6655 23.3656 45.8274 23.0495 45.8274C22.4442 45.8274 22.0198 45.2569 22.1675 44.6892L24.0453 37.5006C24.1096 37.2519 24.2787 37.0413 24.5084 36.9228L28.3321 34.9545C29.4187 34.3975 30.0642 33.3077 30.0986 32.1653C30.1611 30.1381 28.4298 27.8148 25.8415 27.3609C23.8886 26.9553 22.78 27.0411 21.4611 26.2395L15.9104 22.8708C14.7812 22.1847 13.9617 21.1114 13.5951 19.8514L13.0026 17.8169C15.0809 15.4639 17.4461 13.4008 20.0556 11.6631C20.0729 11.7516 20.217 12.5733 20.5707 13.6553C21.8237 17.4889 24.8914 21.4125 26.1876 22.5675C27.9628 24.1483 30.6368 23.9597 32.1854 22.2566C35.4507 18.667 38.235 14.0664 38.2376 9.21329C38.2376 9.21172 38.2376 9.21 38.2376 9.20844C38.2376 8.00938 37.9998 6.80891 37.5536 5.71938C38.3706 5.66422 39.189 5.63641 40.0011 5.63641C45.0486 5.63641 49.9311 6.66094 54.5131 8.68125C55.1054 8.9425 55.7971 8.67407 56.0581 8.08188C56.3192 7.48969 56.0509 6.79797 55.4587 6.53688C50.577 4.38422 45.3762 3.29266 40.0011 3.29266C38.7489 3.29266 37.4836 3.35844 36.2287 3.48125C34.5461 1.37125 31.9603 0.0106291 29.0632 4.06273e-06C23.9948 -0.0229647 20.0337 4.09532 19.8351 9.02079C16.4371 11.1244 13.4021 13.7284 10.8075 16.7705C10.8009 16.7783 10.7951 16.7867 10.7887 16.7945C4.89371 23.7166 1.64746 32.5409 1.64746 41.6464C1.64746 51.4967 5.37637 60.8597 12.1475 68.0108C12.5925 68.4806 13.3342 68.5009 13.8042 68.0561C14.2742 67.6111 14.2943 66.8694 13.8493 66.3994C7.4923 59.6855 3.99137 50.8947 3.99137 41.6466C3.99137 33.8308 6.53856 26.2355 11.2045 20.0245C11.4068 20.5486 11.8334 23.1348 14.6942 24.8744L20.2448 28.2431C22.4654 29.592 25.007 29.315 26.2346 29.9338C26.9926 30.3163 27.5445 31.0184 27.7336 31.8686C27.8221 32.2611 27.6265 32.6827 27.2614 32.8699L23.4353 34.8392C22.6128 35.2631 22.0082 36.0189 21.7773 36.9103L19.8996 44.098C19.3651 46.1567 20.9151 48.1708 23.0498 48.1708C24.1962 48.1708 25.2246 47.5828 25.8164 46.6256C26.959 44.7734 26.5914 45.3694 26.684 45.2192C27.0504 44.6252 27.9026 44.6538 28.2425 45.2397C32.0704 51.8155 31.8748 51.5095 32.0286 51.7259C32.4293 52.2908 33.0011 52.7144 33.6654 52.9328L38.9518 54.668C40.4145 55.1478 41.0128 56.897 40.1429 58.1741C39.705 58.823 39.5996 58.9516 39.4382 59.2375C38.445 60.9997 38.6901 63.1952 40.1045 64.7034L41.9253 66.6452C42.7968 67.5748 42.4793 68.578 42.5512 69.4656C42.5348 70.2283 42.1348 70.9078 41.577 71.3036C38.1604 73.7417 40.2907 77.6158 40.294 77.6548C40.1965 77.6556 40.099 77.6559 40.0014 77.6559C31.6928 77.6559 23.5857 74.758 17.1739 69.4959C16.6734 69.0853 15.9351 69.1581 15.5246 69.6584C15.114 70.1588 15.1868 70.8972 15.6871 71.3078C22.5165 76.9131 31.1514 80 40.0007 80C41.1259 80 41.8618 79.9527 42.085 79.9434C42.1006 79.9381 64.2053 79.7391 74.5539 58.3067C74.554 58.3066 74.554 58.3064 74.5542 58.3061C77.0748 53.0892 78.3529 47.4841 78.3529 41.6463C78.3528 32.6331 75.1629 23.8742 69.3706 16.9833C69.3706 16.9833 69.3707 16.9834 69.3706 16.9833ZM29.0293 2.34375H29.0545C32.8348 2.3575 35.8937 5.44594 35.8937 9.20844C35.8937 13.9822 32.4839 18.4445 30.4512 20.6797C29.682 21.5255 28.3632 21.5117 27.6029 20.6756C24.9386 17.7444 22.3487 13.6833 22.1789 9.71157L22.1768 9.64016C22.1768 9.63828 22.1764 9.63657 22.1764 9.63469C22.0487 5.72266 25.09 2.34375 29.0293 2.34375ZM58.4871 42.5847C58.4904 42.5847 58.4936 42.5845 58.4967 42.5845H58.5215C62.2926 42.5983 65.3607 45.6777 65.3607 49.4492C65.3607 53.6163 62.7401 57.8163 59.9182 60.9205C59.1507 61.7644 57.8336 61.7561 57.07 60.9164C55.1623 58.8178 51.9214 54.618 51.6498 50.0681C51.4104 46.0442 54.5212 42.5903 58.4871 42.5847ZM73.0476 55.9709L67.5056 51.7086C67.6212 51.0528 67.7043 50.2123 67.7043 49.4494C67.7043 44.3903 63.5887 40.2595 58.53 40.2409C58.5298 40.2409 58.5295 40.2409 58.5292 40.2409C58.5181 40.2409 58.5073 40.2409 58.4962 40.2409C54.2365 40.2409 50.6056 43.1822 49.5795 47.3191C48.1615 47.6883 47.774 47.8747 47.2878 47.523L44.5542 45.5409C44.0923 45.2059 43.9943 44.5575 44.3362 44.1008L47.4893 39.8933C48.5495 38.4847 48.8715 37.0906 49.1817 35.4489C49.4551 34.0013 49.6912 32.7511 50.8079 31.532C51.8586 30.3873 53.352 29.7309 54.9054 29.7309C55.9215 29.7309 59.1343 30.4609 60.8328 27.2956L62.2164 24.7169C62.6159 23.9723 63.3606 23.497 64.1836 23.4313C67.2901 23.182 68.2093 20.4639 68.4293 20.2064L68.6437 19.8253C73.4045 26.072 76.0087 33.7555 76.0087 41.6467C76.009 46.6405 75.0136 51.452 73.0476 55.9709Z" fill="#9664FF"/>
</g>
<defs>
<clipPath id="clip0_36_10987">
<rect width="80" height="80" fill="#9664FF"/>
</clipPath>
</defs>
</svg>