                                        <svg width="38" height="38" viewBox="0 0 38 38" fill="none" xmlns="http://www.w3.org/2000/svg">
                                            <path d="M16.4423 2.53177C16.3889 2.46945 16.3483 2.39722 16.3228 2.3192C16.2973 2.24118 16.2874 2.1589 16.2937 2.07706C16.2999 1.99522 16.3223 1.91542 16.3594 1.84222C16.3966 1.76901 16.4478 1.70384 16.5101 1.65042L17.4937 0.807218C17.9184 0.458835 18.4507 0.268433 19 0.268433C19.5493 0.268433 20.0816 0.458835 20.5063 0.807218L21.4902 1.65042C21.6155 1.75847 21.6929 1.9118 21.7053 2.07677C21.7177 2.24175 21.6642 2.40493 21.5566 2.53054C21.4489 2.65615 21.2958 2.73395 21.1309 2.74688C20.9659 2.75981 20.8026 2.70682 20.6766 2.59952L19.6927 1.75632C19.4975 1.5959 19.2527 1.50821 19 1.50821C18.7473 1.50821 18.5025 1.5959 18.3072 1.75632L17.3237 2.59952C17.1977 2.70712 17.0342 2.76041 16.869 2.74771C16.7038 2.73501 16.5504 2.65736 16.4423 2.53177ZM37.75 17.0249V34.625C37.749 35.4535 37.4195 36.2478 36.8336 36.8336C36.2478 37.4194 35.4535 37.749 34.625 37.75H3.375C2.5465 37.749 1.75221 37.4194 1.16637 36.8336C0.580526 36.2478 0.250973 35.4535 0.25 34.625V17.0249C0.249746 16.574 0.347165 16.1285 0.535555 15.7189C0.723944 15.3093 0.998833 14.9453 1.34131 14.6521L2.34318 13.7934C2.46909 13.6859 2.63249 13.6328 2.79753 13.6457C2.96257 13.6585 3.11576 13.7363 3.2235 13.862C3.33124 13.9877 3.38472 14.151 3.37222 14.316C3.35971 14.4811 3.28224 14.6345 3.1568 14.7425L2.15493 15.6012C2.0498 15.6916 1.95503 15.7934 1.87237 15.9047L18.3072 29.9936C18.5025 30.154 18.7473 30.2417 19 30.2417C19.2527 30.2417 19.4975 30.154 19.6927 29.9936L36.1277 15.9047C36.045 15.7934 35.9502 15.6916 35.8451 15.6012L34.8432 14.7425C34.7179 14.6344 34.6406 14.4811 34.6282 14.3161C34.6157 14.1511 34.6692 13.988 34.7769 13.8624C34.8846 13.7367 35.0377 13.6589 35.2026 13.646C35.3675 13.6331 35.5309 13.6861 35.6568 13.7934L36.6587 14.6521C37.0012 14.9453 37.2761 15.3093 37.4644 15.7189C37.6528 16.1285 37.7503 16.574 37.75 17.0249ZM36.5 34.625V17.232L25.6872 26.5015L36.2447 35.5525C36.41 35.2712 36.4981 34.9512 36.5 34.625ZM12.3128 26.5015L1.5 17.232V34.625C1.50198 34.9512 1.59005 35.2711 1.75532 35.5524L12.3128 26.5015ZM34.625 36.5C34.8501 36.4984 35.0731 36.4559 35.283 36.3745L24.7268 27.3247L20.5063 30.9427C20.0868 31.3023 19.5525 31.5 19 31.5C18.4475 31.5 17.9132 31.3023 17.4937 30.9427L13.2732 27.3247L2.71704 36.3745C2.92694 36.4559 3.14989 36.4984 3.375 36.5H34.625ZM5.25 16.9556C5.41576 16.9556 5.57473 16.8897 5.69194 16.7725C5.80915 16.6553 5.875 16.4964 5.875 16.3306V7.12497C5.87554 6.62785 6.07326 6.15126 6.42477 5.79974C6.77629 5.44823 7.25289 5.25051 7.75 5.24997H30.25C30.7471 5.25051 31.2237 5.44823 31.5752 5.79974C31.9267 6.15126 32.1245 6.62785 32.125 7.12497V16.3306C32.125 16.4964 32.1908 16.6553 32.3081 16.7725C32.4253 16.8897 32.5842 16.9556 32.75 16.9556C32.9158 16.9556 33.0747 16.8897 33.1919 16.7725C33.3092 16.6553 33.375 16.4964 33.375 16.3306V7.12497C33.374 6.29647 33.0445 5.50217 32.4586 4.91633C31.8728 4.33049 31.0785 4.00094 30.25 3.99997H7.75C6.9215 4.00094 6.12721 4.33049 5.54137 4.91633C4.95553 5.50217 4.62597 6.29647 4.625 7.12497V16.3306C4.625 16.4964 4.69085 16.6553 4.80806 16.7725C4.92527 16.8897 5.08424 16.9556 5.25 16.9556ZM12.125 20.875V17.5312C11.2911 17.2368 10.5881 16.657 10.1405 15.8942C9.69289 15.1315 9.52944 14.235 9.67907 13.3634C9.82871 12.4918 10.2818 11.7011 10.9582 11.1314C11.6345 10.5616 12.4906 10.2494 13.375 10.25H15.25C19.228 10.25 20.9315 8.08934 21.002 7.99716C21.0813 7.89335 21.1912 7.81697 21.3161 7.77876C21.4411 7.74054 21.5749 7.74239 21.6987 7.78405C21.8226 7.82572 21.9303 7.90511 22.0067 8.01108C22.0832 8.11705 22.1245 8.2443 22.125 8.37497V12.125H22.75C23.2473 12.125 23.7242 12.3225 24.0758 12.6741C24.4275 13.0258 24.625 13.5027 24.625 14C24.625 14.4972 24.4275 14.9742 24.0758 15.3258C23.7242 15.6774 23.2473 15.875 22.75 15.875H22.125V19.625C22.125 19.7561 22.0837 19.884 22.0071 19.9904C21.9304 20.0968 21.8222 20.1764 21.6977 20.2179C21.5733 20.2594 21.439 20.2607 21.3138 20.2216C21.1886 20.1825 21.0788 20.105 21.0001 20C20.9352 19.9155 19.4051 17.9812 15.875 17.7711V20.875C15.875 21.3722 15.6775 21.8492 15.3258 22.2008C14.9742 22.5524 14.4973 22.75 14 22.75C13.5027 22.75 13.0258 22.5524 12.6742 22.2008C12.3225 21.8492 12.125 21.3722 12.125 20.875ZM22.125 13.375V14.625H22.75C22.9158 14.625 23.0747 14.5591 23.1919 14.4419C23.3092 14.3247 23.375 14.1657 23.375 14C23.375 13.8342 23.3092 13.6752 23.1919 13.558C23.0747 13.4408 22.9158 13.375 22.75 13.375H22.125ZM14.625 20.875V17.75H13.375V20.875C13.375 21.0407 13.4408 21.1997 13.5581 21.3169C13.6753 21.4341 13.8342 21.5 14 21.5C14.1658 21.5 14.3247 21.4341 14.4419 21.3169C14.5592 21.1997 14.625 21.0407 14.625 20.875ZM15.875 11.4739V16.5261C17.6695 16.5814 19.4083 17.1629 20.875 18.1983V9.80166C19.4083 10.8371 17.6695 11.4186 15.875 11.4739ZM13.375 16.5H14.625V11.5H13.375C12.712 11.5 12.0761 11.7634 11.6072 12.2322C11.1384 12.701 10.875 13.3369 10.875 14C10.875 14.663 11.1384 15.2989 11.6072 15.7677C12.0761 16.2366 12.712 16.5 13.375 16.5ZM27.75 13.375H26.5C26.3342 13.375 26.1753 13.4408 26.0581 13.558C25.9408 13.6752 25.875 13.8342 25.875 14C25.875 14.1657 25.9408 14.3247 26.0581 14.4419C26.1753 14.5591 26.3342 14.625 26.5 14.625H27.75C27.9158 14.625 28.0747 14.5591 28.1919 14.4419C28.3092 14.3247 28.375 14.1657 28.375 14C28.375 13.8342 28.3092 13.6752 28.1919 13.558C28.0747 13.4408 27.9158 13.375 27.75 13.375ZM26.7795 15.9409C26.7061 15.9039 26.6261 15.8819 26.5441 15.8759C26.4621 15.8699 26.3797 15.8802 26.3017 15.9061C26.2237 15.932 26.1515 15.973 26.0894 16.0268C26.0273 16.0807 25.9764 16.1462 25.9396 16.2198C25.9028 16.2933 25.8809 16.3734 25.8751 16.4554C25.8694 16.5374 25.8798 16.6197 25.9059 16.6977C25.932 16.7756 25.9732 16.8477 26.0272 16.9097C26.0812 16.9717 26.1468 17.0225 26.2205 17.059L27.4705 17.684C27.6187 17.7577 27.7901 17.7696 27.947 17.7171C28.104 17.6645 28.2337 17.5519 28.3078 17.4038C28.3818 17.2558 28.3941 17.0844 28.3419 16.9273C28.2897 16.7703 28.1774 16.6403 28.0295 16.5659L26.7795 15.9409ZM26.5006 12.125C26.5975 12.125 26.693 12.1024 26.7796 12.059L28.0296 11.434C28.1774 11.3597 28.2898 11.2297 28.3419 11.0726C28.3941 10.9155 28.3818 10.7441 28.3078 10.5961C28.2337 10.448 28.104 10.3354 27.9471 10.2829C27.7901 10.2303 27.6187 10.2422 27.4705 10.3159L26.2205 10.9409C26.0945 11.0039 25.9934 11.1076 25.9337 11.2352C25.874 11.3628 25.8592 11.5068 25.8916 11.6439C25.9241 11.781 26.0019 11.9031 26.1124 11.9904C26.223 12.0777 26.3598 12.1251 26.5006 12.125Z" fill="white"/>
                                        </svg> 