                                            <svg width="30" height="30" viewBox="0 0 30 30" fill="none" xmlns="http://www.w3.org/2000/svg">
                                                <g clip-path="url(#clip0_105_4808)">
                                                <path d="M15.0009 5.46661C14.1794 5.46661 13.3887 5.71376 12.7143 6.18134C12.515 6.31956 12.4646 6.59443 12.6018 6.79529C12.739 6.99615 13.0118 7.04689 13.2111 6.90872C13.7387 6.54292 14.3576 6.34956 15.0009 6.34956C16.7443 6.34956 18.1627 7.77855 18.1627 9.53501C18.1627 11.2915 16.7443 12.7205 15.0009 12.7205C13.2575 12.7205 11.8392 11.2915 11.8392 9.53501C11.8392 9.01687 11.9586 8.52292 12.1941 8.06695C12.3058 7.85062 12.2224 7.58407 12.0077 7.47158C11.7929 7.35913 11.5285 7.4431 11.4168 7.65943C11.1199 8.23435 10.9629 8.88292 10.9629 9.53501C10.9629 11.7784 12.7744 13.6035 15.0009 13.6035C17.2275 13.6035 19.0389 11.7784 19.0389 9.53501C19.0389 7.29169 17.2275 5.46661 15.0009 5.46661Z" fill="white"/>
                                                <path d="M29.9663 29.3889L25.6419 18.9203C25.5739 18.7557 25.4144 18.6485 25.2374 18.6485H20.928C21.7662 17.506 22.4639 16.368 23.0087 15.2507C23.9744 13.2706 24.4639 11.3476 24.4639 9.53508C24.4639 4.2774 20.2184 0 15 0C9.78155 0 5.53608 4.2774 5.53608 9.53502C5.53608 11.3476 6.02563 13.2706 6.99126 15.2507C7.53606 16.368 8.23374 17.506 9.07198 18.6484H4.76259C4.58563 18.6484 4.42602 18.7557 4.35811 18.9202L1.41132 26.0538C1.31833 26.2789 1.42403 26.5373 1.64745 26.6309C1.70253 26.654 1.75948 26.665 1.81561 26.665C1.98729 26.665 2.15024 26.5627 2.22026 26.393L2.64073 25.3751H5.6235L4.0778 29.1171H1.09509L1.54315 28.0323C1.63614 27.8072 1.53044 27.5488 1.30702 27.4552C1.08349 27.3613 0.827079 27.468 0.734149 27.693L0.033661 29.3889C-0.0226476 29.5252 -0.00764762 29.6808 0.0736805 29.8035C0.154891 29.9262 0.291649 30 0.438134 30H29.5618C29.7082 30 29.845 29.9262 29.9263 29.8035C30.0076 29.6808 30.0226 29.5252 29.9663 29.3889ZM6.41241 9.53502C6.41241 4.7642 10.2648 0.882891 15 0.882891C19.7352 0.882891 23.5875 4.76426 23.5875 9.53502C23.5875 11.5356 22.8976 14.7325 19.706 18.8064C19.7028 18.8102 19.6999 18.8142 19.6968 18.8181C19.5338 19.026 19.3645 19.236 19.1882 19.4484C17.4344 21.5614 15.6596 23.1044 14.9999 23.6526C14.3422 23.1063 12.5758 21.5711 10.8232 19.4621C10.6425 19.2446 10.4691 19.0297 10.3023 18.817C10.2996 18.8136 10.2971 18.8101 10.2943 18.8067C7.10282 14.7331 6.41241 11.5363 6.41241 9.53502ZM5.05479 19.5313H8.03763L6.94966 22.165H3.96688L5.05479 19.5313ZM7.61698 29.1171L10.3557 22.4873L18.1495 29.1171H7.61698ZM19.5079 29.1171L10.4638 21.4237C10.3571 21.3329 10.2136 21.2988 10.078 21.332C9.94233 21.3651 9.8303 21.4615 9.77669 21.5914L6.66788 29.1171H5.02702L6.68499 25.1033C6.7413 24.967 6.7263 24.8115 6.64497 24.6887C6.56376 24.566 6.42694 24.4922 6.28046 24.4922H3.00559L3.6022 23.0479H7.24192C7.41888 23.0479 7.57849 22.9406 7.64639 22.776L8.98679 19.5313H9.74722C9.87923 19.6971 10.0134 19.863 10.1512 20.0288C12.412 22.7493 14.6382 24.4959 14.7318 24.569C14.8108 24.6306 14.9054 24.6613 15 24.6613C15.0945 24.6613 15.1892 24.6305 15.2681 24.569C15.3196 24.5289 16.0156 23.9825 17.0067 23.0479H21.9685C22.2105 23.0479 22.4067 22.8503 22.4067 22.6065C22.4067 22.3627 22.2105 22.165 21.9685 22.165H17.9098C18.5173 21.5496 19.1813 20.8321 19.8488 20.0289C19.9866 19.863 20.1208 19.6972 20.2528 19.5313H24.9451L26.0331 22.165H23.7211C23.4791 22.165 23.283 22.3627 23.283 22.6065C23.283 22.8503 23.4791 23.0479 23.7211 23.0479H26.3977L26.9943 24.4922H17.9668C17.7839 24.4922 17.6203 24.6066 17.5563 24.7792C17.4924 24.9519 17.5415 25.1463 17.6796 25.2671L22.0819 29.1171H19.5079ZM23.4188 29.1171L19.14 25.3752H27.3591L28.9049 29.1171H23.4188Z" fill="white"/>
                                                </g>
                                                <defs>
                                                <clipPath id="clip0_105_4808">
                                                <rect width="30" height="30" fill="white"/>
                                                </clipPath>
                                                </defs>
                                            </svg>