                                            <svg width="30" height="30" viewBox="0 0 30 30" fill="none" xmlns="http://www.w3.org/2000/svg">
                                                <g clip-path="url(#clip0_105_4775)">
                                                <path d="M28.154 4.16191H5.88357C4.86568 4.16191 4.03758 4.99002 4.03758 6.00791V6.26197H3.86479C2.84689 6.26197 2.01879 7.09008 2.01879 8.10797V8.36197H1.846C0.828105 8.36197 0 9.19013 0 10.208V14.0424C0 14.2852 0.196758 14.4819 0.439453 14.4819C0.682148 14.4819 0.878906 14.2852 0.878906 14.0424V11.1228L9.86027 18.3137L0.878906 23.2491V15.9576C0.878906 15.7148 0.682148 15.5181 0.439453 15.5181C0.196758 15.5181 0 15.7148 0 15.9576V23.9921C0 25.01 0.828105 25.8381 1.846 25.8381H24.1164C25.1318 25.8381 25.9582 25.014 25.9622 23.9995C25.9623 23.9972 25.9624 23.9949 25.9624 23.9926C25.9624 23.9924 25.9624 23.9923 25.9624 23.9921V23.7381H26.1352C27.1531 23.7381 27.9812 22.91 27.9812 21.8921V21.6381H28.154C29.1719 21.6381 30 20.81 30 19.7921V6.00791C30 4.99002 29.1719 4.16191 28.154 4.16191ZM25.9624 10.208C25.9624 10.1205 25.9559 10.0345 25.944 9.95009L27.1023 9.02273V18.6787V18.6818V21.149L25.9624 20.5226V10.208ZM27.9812 8.10797C27.9812 8.02043 27.9746 7.93441 27.9628 7.8501L29.1211 6.92273V19.0491L27.9812 18.4227V8.10797ZM3.86479 7.14088H18.9713C19.214 7.14088 19.4108 6.94418 19.4108 6.70142C19.4108 6.45867 19.214 6.26197 18.9713 6.26197H4.91648V6.00791C4.91648 5.47465 5.35031 5.04082 5.88357 5.04082H28.154C28.6204 5.04082 29.0108 5.37263 29.1013 5.81267L27.6137 7.00377C27.2767 6.55377 26.7394 6.26197 26.1352 6.26197H20.8866C20.6439 6.26197 20.4471 6.45867 20.4471 6.70142C20.4471 6.94418 20.6439 7.14088 20.8866 7.14088H26.1352C26.6016 7.14088 26.992 7.47269 27.0825 7.91273L25.5949 9.10377C25.2579 8.65371 24.7206 8.36197 24.1164 8.36197H2.8977V8.10797C2.8977 7.5747 3.33152 7.14088 3.86479 7.14088ZM1.846 9.24088H24.1164C24.5828 9.24088 24.9732 9.57275 25.0637 10.0128L13.5976 19.193C13.2346 19.4835 12.7277 19.4835 12.3647 19.193L10.9222 18.038C10.9215 18.0374 10.9208 18.0369 10.9201 18.0363L0.898711 10.0128C0.989238 9.57275 1.37959 9.24088 1.846 9.24088ZM24.1164 24.9592H1.846C1.39664 24.9592 1.01783 24.6511 0.909785 24.2351L10.603 18.9084L11.8154 19.8791C12.1586 20.1539 12.5699 20.2912 12.9812 20.2912C13.3924 20.2912 13.8038 20.1538 14.1469 19.8791L15.3594 18.9084L19.4709 21.1678C19.5381 21.2047 19.6106 21.2222 19.6822 21.2222C19.8373 21.2222 19.9877 21.1399 20.0677 20.9943C20.1846 20.7816 20.1069 20.5144 19.8942 20.3975L16.1021 18.3136L25.0834 11.1227V20.7786V20.7817V23.249L21.5408 21.3022C21.3281 21.1853 21.0609 21.263 20.944 21.4757C20.8271 21.6885 20.9048 21.9556 21.1175 22.0725L25.0513 24.2343C24.9435 24.6506 24.5658 24.9592 24.1164 24.9592ZM26.1352 22.8591H25.9624V21.5256L27.0714 22.135C26.9634 22.551 26.5846 22.8591 26.1352 22.8591ZM28.154 20.7591H27.9812V19.4256L29.0902 20.035C28.9822 20.451 28.6034 20.7591 28.154 20.7591Z" fill="white"/>
                                                </g>
                                                <defs>
                                                <clipPath id="clip0_105_4775">
                                                <rect width="30" height="30" fill="white"/>
                                                </clipPath>
                                                </defs>
                                            </svg>