                                        <svg width="40" height="40" viewBox="0 0 40 40" fill="none" xmlns="http://www.w3.org/2000/svg">
                                            <g clip-path="url(#clip0_38_11201)">
                                            <path d="M39.9713 20.9412C39.9054 20.618 39.6411 20.3662 39.314 20.3186C38.9859 20.2707 38.6545 20.4431 38.5044 20.7385C38.3603 21.0217 38.404 21.3721 38.6133 21.6113C38.8321 21.8616 39.1956 21.9458 39.5023 21.8189C39.8429 21.6782 40.0452 21.3031 39.9713 20.9412Z" fill="white"/>
                                            <path d="M38.0133 23.1484C37.6382 22.9315 37.1585 23.0593 36.9415 23.4341L35.1336 26.5566C34.5687 27.5314 33.3163 27.8652 32.3416 27.3007C31.3668 26.7361 31.033 25.4836 31.5976 24.5089L38.8455 11.9927C41.0534 8.18019 39.7479 3.28181 35.935 1.07417C32.1222 -1.13378 27.2241 0.171765 25.0164 3.98463L24.0994 5.56788C21.4801 4.26692 18.5141 3.96479 15.6628 4.72468C12.5573 5.55262 9.95999 7.53993 8.34958 10.3213L1.62503 21.9335C0.0143136 24.7146 -0.416594 27.9565 0.411042 31.062C1.23868 34.1671 3.22629 36.7645 6.00735 38.3749C7.86465 39.4503 9.92703 39.9999 12.0172 39.9999C13.0572 39.9999 14.104 39.8638 15.1358 39.5889C18.2412 38.7612 20.8383 36.7736 22.4487 33.9926L27.4423 25.3698C27.4469 25.3619 27.4505 25.3533 27.4548 25.3454C27.4597 25.3372 27.4655 25.3295 27.4704 25.3213L29.1735 22.38C30.7843 19.5989 31.2152 16.3571 30.3875 13.2516C29.6276 10.4003 27.8891 7.97816 25.4568 6.35401L26.3739 4.77046C28.1482 1.70649 32.0846 0.656994 35.1489 2.43159C36.6336 3.29097 37.6941 4.67738 38.1359 6.33479C38.5778 7.9922 38.3477 9.72254 37.4881 11.2069L30.2401 23.7228C29.2422 25.4461 29.8324 27.6602 31.5554 28.6581C32.124 28.9874 32.7456 29.1436 33.3593 29.1436C34.6069 29.1436 35.8221 28.4976 36.4907 27.3428L38.2989 24.2202C38.5162 23.8455 38.3883 23.3657 38.0133 23.1484ZM20.6356 11.5631C20.8227 11.2414 21.2066 11.1038 21.5475 11.2142C21.5527 11.2161 21.5576 11.2176 21.5625 11.2194C21.5814 11.2261 21.5997 11.2332 21.618 11.2411C21.6394 11.2506 21.6601 11.2609 21.6806 11.2722C21.6858 11.2753 21.6912 11.2774 21.6964 11.2805L21.6983 11.2814C22.0684 11.4962 22.1951 11.972 21.9809 12.3428L20.2206 15.382C20.1165 15.5615 19.949 15.6896 19.7485 15.743C19.548 15.7965 19.3383 15.7684 19.1589 15.6646C18.9792 15.5606 18.8507 15.3927 18.7973 15.1919C18.7436 14.9914 18.7716 14.7817 18.8757 14.6023L20.6356 11.5631ZM9.707 11.1071C11.1074 8.68861 13.3661 6.9604 16.0666 6.24049C18.5128 5.58833 21.0568 5.8346 23.3117 6.92805L21.7389 9.64442C21.3992 9.58003 21.0467 9.59193 20.7028 9.68379C20.1587 9.82874 19.6951 10.1577 19.3798 10.617C19.3792 10.6179 19.3786 10.6188 19.3777 10.6198C19.3441 10.6689 19.3118 10.7192 19.2816 10.7714L17.5143 13.8229C17.0047 14.703 17.1353 15.7803 17.7609 16.5136L16.7706 18.2238L8.37063 13.4149L9.707 11.1071ZM21.0916 33.2064C18.2003 38.1991 11.7862 39.9087 6.79349 37.0175C1.80081 34.1262 0.0912177 27.7123 2.98245 22.7197L7.58267 14.7756L25.6918 25.2624L21.0916 33.2064ZM28.8717 13.6556C29.5916 16.3561 29.2166 19.1754 27.8161 21.5939L26.5057 23.8568L18.1302 19.0063L19.1177 17.3007C19.2593 17.3275 19.403 17.3416 19.5474 17.3416C19.7494 17.3416 19.953 17.3153 20.1535 17.2619C20.7571 17.1008 21.2619 16.7147 21.5747 16.1743L23.3419 13.1228C23.8513 12.243 23.721 11.166 23.0954 10.4321L24.6692 7.71388C26.7401 9.12562 28.2196 11.2094 28.8717 13.6556Z" fill="white"/>
                                            </g>
                                            <defs>
                                            <clipPath id="clip0_38_11201">
                                            <rect width="40" height="40" fill="white"/>
                                            </clipPath>
                                            </defs>
                                        </svg>