<svg width="40" height="40" viewBox="0 0 40 40" fill="none" xmlns="http://www.w3.org/2000/svg">
    <g clip-path="url(#clip0_38_11125)">
    <path d="M23.6559 13.7501C23.6559 15.7659 22.0155 17.4062 19.9997 17.4062C17.9839 17.4062 16.3435 15.7659 16.3435 13.7501C16.3435 11.7343 17.9839 10.0939 19.9997 10.0939C22.0155 10.0939 23.6559 11.7343 23.6559 13.7501ZM22.5934 13.7501C22.5934 12.3197 21.4301 11.1563 19.9997 11.1563C18.5693 11.1563 17.406 12.3197 17.406 13.7501C17.406 15.1805 18.5693 16.3438 19.9997 16.3438C21.4301 16.3438 22.5934 15.1805 22.5934 13.7501Z" fill="white" stroke="white" stroke-width="0.5"/>
    <path d="M10.5406 32.4351L10.4767 32.3031C9.50444 30.2934 7.22723 29.0331 4.87026 29.366C3.65018 29.5382 2.49245 30.2265 1.63816 31.1827C0.78358 32.1393 0.25 33.3445 0.25 34.5311C0.25 37.2238 2.60444 39.7497 5.62491 39.7497H16.4841C16.7775 39.7497 17.0154 39.5119 17.0154 39.2185C17.0154 38.9251 16.7775 38.6872 16.4841 38.6872H5.62491C3.33207 38.6872 1.31248 36.7592 1.31248 34.5311C1.31248 33.5861 1.77194 32.6259 2.44961 31.8756C3.12793 31.1246 4.05089 30.5547 5.01869 30.4181L10.5406 32.4351ZM10.5406 32.4351L10.687 32.4438M10.5406 32.4351L10.687 32.4438M10.687 32.4438C12.3227 32.5406 13.6738 33.7187 14.0318 35.272L14.2754 35.2159M10.687 32.4438L14.2754 35.2159M14.2754 35.2159L14.3443 35.4562C15.4583 35.1371 16.3435 34.1265 16.3435 32.9686V30.1561V29.9061H16.0935H15.3123C15.046 29.9061 14.8209 29.709 14.7857 29.4451L14.7857 29.445L14.4594 26.9981L14.4304 26.7812H14.2116H10.7733C9.53722 26.7812 8.53112 25.7751 8.53112 24.539C8.53112 24.0046 8.7227 23.4866 9.07046 23.0803C9.07049 23.0803 9.07052 23.0803 9.07055 23.0802L13.209 18.2521L13.2818 18.1672L13.267 18.0564L12.8646 15.0392C12.0823 9.16669 14.9418 3.19758 19.7262 0.326118C19.8945 0.225115 20.1048 0.225115 20.2731 0.326118C25.0564 3.19697 27.9172 9.16547 27.1347 15.039L26.7323 18.0563L26.7175 18.1672L26.7903 18.2521L30.9286 23.0799C31.2766 23.4864 31.4683 24.0046 31.4683 24.539C31.4683 25.7752 30.4622 26.7812 29.2261 26.7812H25.7878H25.5689L25.54 26.9981L25.2137 29.445C25.1785 29.709 24.9534 29.9061 24.6871 29.9061H23.9059H23.6559V30.1561V32.9686C23.6559 34.1265 24.5411 35.1371 25.6551 35.4562L25.9084 35.5288L25.9676 35.272C26.3256 33.7187 27.6767 32.5405 29.3123 32.4438L29.4588 32.4351L29.5226 32.3031C30.4946 30.2941 32.7711 29.0332 35.1292 29.366L35.1641 29.1185L35.1292 29.366C36.3734 29.5415 37.5427 30.2419 38.3964 31.214C39.2505 32.1865 39.7723 33.4118 39.7493 34.6192C39.6954 37.3911 37.2367 39.7497 34.3745 39.7497H23.5153C23.2219 39.7497 22.984 39.5119 22.984 39.2185C22.984 38.9251 23.2219 38.6872 23.5153 38.6872H34.3744C36.6638 38.6872 38.6436 36.8266 38.6869 34.5989V34.5988C38.7053 33.6392 38.2546 32.663 37.5765 31.8999C36.8976 31.1361 35.9657 30.557 34.9807 30.4181C33.2975 30.1806 31.6184 30.966 30.7339 32.3157L30.5646 32.574L30.8526 32.6858C31.3233 32.8685 31.7551 33.1474 32.116 33.5089C32.3233 33.7166 32.323 34.053 32.1154 34.2602C31.9069 34.4683 31.5707 34.4665 31.3642 34.2597C30.9017 33.7965 30.3029 33.5238 29.537 33.5L29.537 33.4999H29.5292C28.1002 33.4999 26.937 34.6633 26.937 36.0936C26.937 36.387 26.6991 36.6248 26.4058 36.6248C24.3324 36.6248 22.5933 34.9388 22.5933 32.9687V30.1562V29.9062H22.3433H17.6559H17.4059V30.1562V32.9687C17.4059 34.9388 15.6668 36.6248 13.5935 36.6248C13.3001 36.6248 13.0622 36.387 13.0622 36.0936C13.0622 34.6632 11.8989 33.4999 10.4685 33.4999V33.4997L10.4597 33.5001C9.64819 33.5286 9.0733 33.8207 8.6351 34.2596L14.2754 35.2159ZM9.43458 32.574L9.14666 32.6858C8.67601 32.8685 8.2442 33.1474 7.88328 33.5089L7.70636 33.3322L7.88328 33.5089C7.67602 33.7165 7.67624 34.0529 7.88386 34.2602L9.43458 32.574ZM9.43458 32.574L9.26528 32.3157M9.43458 32.574L9.26528 32.3157M9.26528 32.3157C8.38066 30.9659 6.70132 30.1804 5.01873 30.4181L9.26528 32.3157ZM30.1218 23.7713L30.1218 23.7713L26.8929 20.0044L26.5292 19.5801L26.4553 20.1341L25.7484 25.4357L25.7106 25.7188H25.9962H29.2261C29.8767 25.7188 30.4058 25.1898 30.4058 24.5391C30.4058 24.2577 30.305 23.9852 30.1218 23.7713ZM20.137 1.49524L19.9997 1.40497L19.8624 1.49524C18.6469 2.29417 17.5586 3.32826 16.6522 4.53785L16.3525 4.93777H16.8522H23.1471H23.6469L23.3472 4.53785C22.4407 3.32826 21.3524 2.29417 20.137 1.49524ZM24.3769 6.12871L24.3055 6.00025H24.1585H15.841V6.25025L15.6225 6.12871C14.1263 8.81829 13.5202 11.9141 13.9178 14.8988L13.9178 14.8988L15.3318 25.5017L15.3607 25.7187H15.5796H24.4196H24.6385L24.6674 25.5018L26.0816 14.8986L26.0816 14.8986C26.4792 11.9141 25.8731 8.81814 24.3769 6.12871ZM9.87738 23.7715L9.87727 23.7716C9.69448 23.9851 9.5936 24.2577 9.5936 24.539C9.5936 25.1897 10.1225 25.7187 10.7733 25.7187H14.0032H14.2888L14.251 25.4357L13.5441 20.1341L13.4702 19.5801L13.1065 20.0044L9.87738 23.7715ZM15.788 26.7812H15.5024L15.5401 27.0642L15.7485 28.6267L15.7774 28.8437H15.9963H24.0031H24.222L24.2509 28.6267L24.4592 27.0642L24.4969 26.7812H24.2113H15.788ZM8.25917 34.4155C8.123 34.4155 7.98761 34.3638 7.88389 34.2603L8.63505 34.2597C8.53121 34.3636 8.39559 34.4155 8.25917 34.4155Z" fill="white" stroke="white" stroke-width="0.5"/>
    <path d="M19.9998 39.9998C20.4312 39.9998 20.781 39.65 20.781 39.2185C20.781 38.787 20.4312 38.4373 19.9998 38.4373C19.5683 38.4373 19.2185 38.787 19.2185 39.2185C19.2185 39.65 19.5683 39.9998 19.9998 39.9998Z" fill="white"/>
    </g>
    <defs>
    <clipPath id="clip0_38_11125">
    <rect width="40" height="40" fill="white"/>
    </clipPath>
    </defs>
</svg> 