<svg width="55" height="55" viewBox="0 0 55 55" fill="none" xmlns="http://www.w3.org/2000/svg">
    <g clip-path="url(#clip0_101_1595)">
    <path d="M17.1497 44.6983C17.1482 44.6991 17.1479 44.6993 17.1497 44.6983V44.6983Z" fill="#8B54FF"></path>
    <path d="M50.4965 44.8192C50.0579 44.7421 49.6409 45.0361 49.5644 45.4744C49.1376 47.9155 47.0032 49.079 44.508 49.079C38.0037 49.079 30.4399 44.898 25.7001 40.7635C25.6581 40.5004 25.6484 40.5031 25.6619 40.4902L26.8729 39.3097C31.0994 42.1117 41.1049 48.2608 45.7417 46.2021C47.0648 45.615 47.8578 44.4634 48.0985 42.7796C48.1026 42.7509 48.1052 42.7221 48.106 42.6932C48.631 27.4133 23.5067 1.91621 7.71941 1.65442C12.7795 1.26684 20.0587 4.09559 27.529 9.41029C27.8918 9.66832 28.3945 9.58346 28.6524 9.2208C28.9103 8.85825 28.8255 8.3553 28.4629 8.09738C17.8286 0.531535 5.39576 -3.35134 0.840525 3.71413C0.16441 4.76214 1.56208 5.93701 2.49246 5.00706C5.37427 2.12503 10.8717 3.36329 14.6739 4.85775C30.8988 11.2355 46.8351 31.5739 46.4975 42.5938C46.3327 43.6832 45.8714 44.3821 45.0882 44.7298C41.9764 46.1109 34.4037 42.3365 28.0537 38.159L31.0073 35.2798C31.975 34.3368 31.4405 32.6924 30.1036 32.4983L22.7165 31.4248C22.6972 31.4219 22.8571 31.7211 19.3981 24.7203C18.9172 23.7452 17.8944 23.7991 17.9359 23.8112C17.3107 23.8112 16.7503 24.1596 16.4736 24.7202C13.0264 31.6976 13.1757 31.4218 13.1551 31.4248L11.7679 31.6265C11.3276 31.6905 11.0227 32.0991 11.0867 32.5396C11.1506 32.9799 11.5588 33.2854 11.9997 33.2208L13.3867 33.0192C13.918 32.9421 14.3771 32.6086 14.6148 32.1271C14.6181 32.1205 14.6205 32.1156 14.6225 32.1115C14.6198 32.117 14.6169 32.1227 14.6156 32.1253C14.6324 32.0912 14.9761 31.3951 17.9232 25.4247C17.9285 25.4216 17.9434 25.4216 17.9478 25.424L21.2572 32.1271C21.4949 32.6085 21.9538 32.9421 22.4851 33.0192C22.7623 33.0595 20.832 32.7788 29.8819 34.0947C29.8865 34.0988 29.891 34.1129 29.89 34.1179L24.5377 39.3366C24.1532 39.7114 23.978 40.251 24.0688 40.7799C24.1161 41.0559 23.7865 39.1334 25.3318 48.147C25.309 48.2004 25.71 48.3517 18.6948 44.6842C18.2197 44.4348 17.6526 44.4347 17.1773 44.6843C17.1615 44.6925 17.1537 44.6966 17.151 44.6981C17.1548 44.6961 17.1667 44.6899 17.1731 44.6865C17.1148 44.7173 16.3457 45.1214 10.5609 48.1622C10.5548 48.1615 10.5429 48.1529 10.5407 48.1482L11.8036 40.7798C11.8943 40.2507 11.7188 39.7112 11.3345 39.3367L5.9825 34.1189C5.9811 34.1128 5.98572 34.0988 5.98948 34.0952C9.4533 33.5904 7.81877 33.8285 8.27456 33.762C8.71489 33.698 9.01975 33.2894 8.95583 32.8489C8.89192 32.4086 8.4835 32.1029 8.04275 32.1677L5.76819 32.4983C4.43132 32.6927 3.8969 34.3371 4.86445 35.2798C10.446 40.7252 10.2188 40.4879 10.2155 40.5077L8.95358 47.8649C8.72488 49.1968 10.1243 50.2126 11.3195 49.584C18.2096 45.9655 17.9271 46.1005 17.9451 46.1104L24.5523 49.584C25.6217 50.1463 26.8947 49.3904 26.9412 48.21C30.8982 50.8196 35.3407 52.9127 35.8989 52.9127C36.7793 52.9126 37.0181 51.6935 36.2037 51.3611C33.091 50.0904 29.8632 48.3004 26.6053 46.0385L26.1161 43.1859C31.2071 47.1348 38.0939 50.6903 44.5075 50.6903C47.766 50.6903 50.5883 48.9876 51.1522 45.7515C51.2281 45.3131 50.9348 44.8957 50.4965 44.8192ZM14.6234 32.1089C14.6243 32.1071 14.625 32.1056 14.6257 32.1043C14.625 32.1057 14.6243 32.1073 14.6234 32.1089Z" fill="#8B54FF"></path>
    <path d="M14.616 32.1257C14.6149 32.1277 14.6151 32.1275 14.616 32.1257V32.1257Z" fill="#8B54FF"></path>
    <path d="M52.4456 36.9731C48.5477 27.0568 39.9556 17.1196 31.5106 10.3957C31.1625 10.1185 30.6557 10.1761 30.3785 10.524C30.1014 10.8722 30.1589 11.3789 30.5069 11.6561C47.3783 25.0882 57.2477 44.9047 50.7552 51.3973C48.5966 53.5557 44.6603 53.97 39.6703 52.5642C39.2422 52.4438 38.7971 52.6929 38.6765 53.1211C38.5557 53.5494 38.8052 53.9943 39.2334 54.115C52.0115 57.7157 57.5658 49.9989 52.4456 36.9731Z" fill="#8B54FF"></path>
    </g>
    <defs>
    <clipPath>
    <rect width="55" height="55" fill="white"></rect>
    </clipPath>
    </defs>
</svg>